<svg width="34" height="34" viewBox="0 0 34 34" fill="none" xmlns="http://www.w3.org/2000/svg">
<path d="M17.0158 28.5643L11.0546 22.2624L12.9842 20.437L17.0106 24.6935L21.0132 20.4396L22.9478 22.2598L17.0158 28.5643ZM28.0234 26.0312V7.96875C28.0234 3.57478 24.4487 0 20.0547 0H13.9453C9.55135 0 5.97656 3.57478 5.97656 7.96875V26.0312C5.97656 30.4252 9.55135 34 13.9453 34H20.0547C24.4487 34 28.0234 30.4252 28.0234 26.0312ZM20.0547 2.65625C22.9841 2.65625 25.3672 5.03935 25.3672 7.96875V26.0312C25.3672 28.9606 22.9841 31.3438 20.0547 31.3438H13.9453C11.0159 31.3438 8.63281 28.9606 8.63281 26.0312V7.96875C8.63281 5.03935 11.0159 2.65625 13.9453 2.65625H20.0547ZM17 5.37891C16.2664 5.37891 15.6719 5.97345 15.6719 6.70703C15.6719 7.44061 16.2664 8.03516 17 8.03516C17.7336 8.03516 18.3281 7.44061 18.3281 6.70703C18.3281 5.97345 17.7336 5.37891 17 5.37891ZM17 10.6914C16.2664 10.6914 15.6719 11.2859 15.6719 12.0195C15.6719 12.7531 16.2664 13.3477 17 13.3477C17.7336 13.3477 18.3281 12.7531 18.3281 12.0195C18.3281 11.2859 17.7336 10.6914 17 10.6914ZM17 16.0039C16.2664 16.0039 15.6719 16.5984 15.6719 17.332C15.6719 18.0656 16.2664 18.6602 17 18.6602C17.7336 18.6602 18.3281 18.0656 18.3281 17.332C18.3281 16.5984 17.7336 16.0039 17 16.0039Z" fill="white"/>
</svg>