<svg width="18" height="18" viewBox="0 0 18 18" fill="none" xmlns="http://www.w3.org/2000/svg">
<g clip-path="url(#clip0)">
<path d="M15.6501 17.1244L18 14.7663L13.111 9.86923L11.1503 11.7677C10.5855 11.4495 9.50359 10.7592 8.32713 9.58271C7.15045 8.40606 6.45225 7.31622 6.12902 6.74602L8.02672 4.82382L3.23476 0.00317318L0.873947 2.34837C-0.0225011 3.24482 -0.254812 4.60884 0.295803 5.74256C1.13604 7.4726 2.68642 10.0835 5.30067 12.6978C7.91485 15.312 10.5258 16.8623 12.2559 17.7026C12.6658 17.9017 13.1058 17.9984 13.5429 17.9984C14.3148 17.9984 15.0777 17.6968 15.6501 17.1244ZM12.8698 16.4387C11.2367 15.6455 8.77031 14.1802 6.29426 11.7042C3.8181 9.22805 2.35293 6.76167 1.55977 5.12863C1.27061 4.53326 1.39429 3.81519 1.86591 3.34357L3.22853 1.98999L6.0488 4.8273L4.43217 6.46485L4.62729 6.90296C4.659 6.97415 5.42572 8.66861 7.33351 10.5764C9.24256 12.4854 10.9227 13.2362 10.9933 13.2672L11.4255 13.4572L13.0943 11.8414L16.0154 14.7673L14.656 16.1315C14.1826 16.6042 13.4649 16.7277 12.8698 16.4387Z" fill="white"/>
</g>
<defs>
<clipPath id="clip0">
<rect width="18" height="18" fill="white" transform="translate(18) rotate(90)"/>
</clipPath>
</defs>
</svg>