<svg width="71" height="71" viewBox="0 0 71 71" fill="none" xmlns="http://www.w3.org/2000/svg">
<mask id="path-1-inside-1_301_106" fill="white">
<path d="M69.2071 56.4103L65.0518 54.2623C58.8413 64.0241 47.9271 70.5005 35.5001 70.5005C16.1702 70.5005 0.500122 54.8305 0.500122 35.5005C0.500122 16.1705 16.1702 0.500488 35.5001 0.500488C54.8301 0.500488 70.5001 16.1705 70.5001 35.5005H68.5025C68.5025 17.2738 53.7268 2.49811 35.5001 2.49811C17.2734 2.49811 2.49774 17.2738 2.49774 35.5005C2.49774 53.7272 17.2734 68.5029 35.5001 68.5029C47.1542 68.5029 57.3975 62.4621 63.2695 53.341L59.3705 51.3255L68.6948 45.3446L69.2071 56.4103Z"/>
<path fill-rule="evenodd" clip-rule="evenodd" d="M34.2516 31.0177V14.5254H36.7486V30.9752C38.5486 31.4024 39.9776 32.7973 40.4284 34.5849H51.7308V37.0819H40.4066C39.833 39.1985 37.882 40.7442 35.5833 40.7442C32.8384 40.7442 30.5893 38.54 30.5893 35.7918C30.5893 33.5047 32.1469 31.5944 34.2516 31.0177ZM35.5833 33.3364C34.1911 33.3364 33.0863 34.4488 33.0863 35.7918C33.0863 37.1347 34.1911 38.2472 35.5833 38.2472C36.9756 38.2472 38.0804 37.1347 38.0804 35.7918C38.0804 34.4488 36.9756 33.3364 35.5833 33.3364Z"/>
<path d="M37.9971 6.53493C37.9971 7.914 36.8792 9.03196 35.5001 9.03196C34.121 9.03196 33.0031 7.914 33.0031 6.53493C33.0031 5.15586 34.121 4.0379 35.5001 4.0379C36.8792 4.0379 37.9971 5.15586 37.9971 6.53493Z"/>
<path d="M8.86515 35.7501C8.86515 37.1292 7.7472 38.2472 6.36813 38.2472C4.98906 38.2472 3.8711 37.1292 3.8711 35.7501C3.8711 34.3711 4.98906 33.2531 6.36813 33.2531C7.7472 33.2531 8.86515 34.3711 8.86515 35.7501Z"/>
<path d="M35.5001 67.2959C36.8792 67.2959 37.9971 66.178 37.9971 64.7989C37.9971 63.4198 36.8792 62.3019 35.5001 62.3019C34.121 62.3019 33.0031 63.4198 33.0031 64.7989C33.0031 66.178 34.121 67.2959 35.5001 67.2959Z"/>
<path d="M66.9627 35.7501C66.9627 37.1292 65.8447 38.2472 64.4656 38.2472C63.0866 38.2472 61.9686 37.1292 61.9686 35.7501C61.9686 34.3711 63.0866 33.2531 64.4656 33.2531C65.8447 33.2531 66.9627 34.3711 66.9627 35.7501Z"/>
<path d="M12.5275 36.8322C13.217 36.8322 13.776 36.2732 13.776 35.5837C13.776 34.8941 13.217 34.3352 12.5275 34.3352C11.8379 34.3352 11.2789 34.8941 11.2789 35.5837C11.2789 36.2732 11.8379 36.8322 12.5275 36.8322Z"/>
<path d="M11.8616 50.1497C11.8616 50.8392 11.3026 51.3982 10.6131 51.3982C9.92354 51.3982 9.36456 50.8392 9.36456 50.1497C9.36456 49.4601 9.92354 48.9012 10.6131 48.9012C11.3026 48.9012 11.8616 49.4601 11.8616 50.1497Z"/>
<path d="M63.2171 44.9059C63.9067 44.9059 64.4656 44.3469 64.4656 43.6574C64.4656 42.9679 63.9067 42.4089 63.2171 42.4089C62.5276 42.4089 61.9686 42.9679 61.9686 43.6574C61.9686 44.3469 62.5276 44.9059 63.2171 44.9059Z"/>
<path d="M16.273 56.1425C16.273 56.8321 15.714 57.3911 15.0245 57.3911C14.335 57.3911 13.776 56.8321 13.776 56.1425C13.776 55.453 14.335 54.894 15.0245 54.894C15.714 54.894 16.273 55.453 16.273 56.1425Z"/>
<path d="M21.0174 61.8025C21.7069 61.8025 22.2659 61.2435 22.2659 60.554C22.2659 59.8644 21.7069 59.3054 21.0174 59.3054C20.3278 59.3054 19.7688 59.8644 19.7688 60.554C19.7688 61.2435 20.3278 61.8025 21.0174 61.8025Z"/>
<path d="M28.8414 63.5504C28.8414 64.2399 28.2824 64.7989 27.5929 64.7989C26.9033 64.7989 26.3443 64.2399 26.3443 63.5504C26.3443 62.8608 26.9033 62.3019 27.5929 62.3019C28.2824 62.3019 28.8414 62.8608 28.8414 63.5504Z"/>
<path d="M35.5001 59.8881C36.1896 59.8881 36.7486 59.3291 36.7486 58.6396C36.7486 57.95 36.1896 57.3911 35.5001 57.3911C34.8106 57.3911 34.2516 57.95 34.2516 58.6396C34.2516 59.3291 34.8106 59.8881 35.5001 59.8881Z"/>
<path d="M36.7486 12.1116C36.7486 12.8012 36.1896 13.3601 35.5001 13.3601C34.8106 13.3601 34.2516 12.8012 34.2516 12.1116C34.2516 11.4221 34.8106 10.8631 35.5001 10.8631C36.1896 10.8631 36.7486 11.4221 36.7486 12.1116Z"/>
<path d="M43.4074 64.7989C44.0969 64.7989 44.6559 64.2399 44.6559 63.5504C44.6559 62.8608 44.0969 62.3019 43.4074 62.3019C42.7178 62.3019 42.1589 62.8608 42.1589 63.5504C42.1589 64.2399 42.7178 64.7989 43.4074 64.7989Z"/>
<path d="M51.2314 60.554C51.2314 61.2435 50.6724 61.8025 49.9829 61.8025C49.2933 61.8025 48.7344 61.2435 48.7344 60.554C48.7344 59.8644 49.2933 59.3054 49.9829 59.3054C50.6724 59.3054 51.2314 59.8644 51.2314 60.554Z"/>
<path d="M55.8925 57.3911C56.582 57.3911 57.141 56.8321 57.141 56.1425C57.141 55.453 56.582 54.894 55.8925 54.894C55.203 54.894 54.644 55.453 54.644 56.1425C54.644 56.8321 55.203 57.3911 55.8925 57.3911Z"/>
<path d="M8.86515 43.6574C8.86515 44.3469 8.30617 44.9059 7.61664 44.9059C6.9271 44.9059 6.36813 44.3469 6.36813 43.6574C6.36813 42.9679 6.9271 42.4089 7.61664 42.4089C8.30617 42.4089 8.86515 42.9679 8.86515 43.6574Z"/>
<path d="M27.5929 9.03196C28.2824 9.03196 28.8414 8.47298 28.8414 7.78344C28.8414 7.09391 28.2824 6.53493 27.5929 6.53493C26.9033 6.53493 26.3443 7.09391 26.3443 7.78344C26.3443 8.47298 26.9033 9.03196 27.5929 9.03196Z"/>
<path d="M22.1826 10.8631C22.1826 11.5526 21.6237 12.1116 20.9341 12.1116C20.2446 12.1116 19.6856 11.5526 19.6856 10.8631C19.6856 10.1736 20.2446 9.6146 20.9341 9.6146C21.6237 9.6146 22.1826 10.1736 22.1826 10.8631Z"/>
<path d="M15.4407 16.6063C16.1302 16.6063 16.6892 16.0473 16.6892 15.3578C16.6892 14.6682 16.1302 14.1092 15.4407 14.1092C14.7511 14.1092 14.1921 14.6682 14.1921 15.3578C14.1921 16.0473 14.7511 16.6063 15.4407 16.6063Z"/>
<path d="M12.5275 21.1009C12.5275 21.7905 11.9685 22.3494 11.2789 22.3494C10.5894 22.3494 10.0304 21.7905 10.0304 21.1009C10.0304 20.4114 10.5894 19.8524 11.2789 19.8524C11.9685 19.8524 12.5275 20.4114 12.5275 21.1009Z"/>
<path d="M7.61664 29.0914C8.30617 29.0914 8.86515 28.5324 8.86515 27.8429C8.86515 27.1534 8.30617 26.5944 7.61664 26.5944C6.9271 26.5944 6.36813 27.1534 6.36813 27.8429C6.36813 28.5324 6.9271 29.0914 7.61664 29.0914Z"/>
<path d="M60.2207 35.5837C60.2207 36.2732 59.6617 36.8322 58.9722 36.8322C58.2826 36.8322 57.7237 36.2732 57.7237 35.5837C57.7237 34.8941 58.2826 34.3352 58.9722 34.3352C59.6617 34.3352 60.2207 34.8941 60.2207 35.5837Z"/>
<path d="M60.2207 22.8488C60.9102 22.8488 61.4692 22.2899 61.4692 21.6003C61.4692 20.9108 60.9102 20.3518 60.2207 20.3518C59.5311 20.3518 58.9722 20.9108 58.9722 21.6003C58.9722 22.2899 59.5311 22.8488 60.2207 22.8488Z"/>
<path d="M64.4656 27.8429C64.4656 28.5324 63.9067 29.0914 63.2171 29.0914C62.5276 29.0914 61.9686 28.5324 61.9686 27.8429C61.9686 27.1534 62.5276 26.5944 63.2171 26.5944C63.9067 26.5944 64.4656 27.1534 64.4656 27.8429Z"/>
<path d="M55.8925 16.6063C56.582 16.6063 57.141 16.0473 57.141 15.3578C57.141 14.6682 56.582 14.1092 55.8925 14.1092C55.203 14.1092 54.644 14.6682 54.644 15.3578C54.644 16.0473 55.203 16.6063 55.8925 16.6063Z"/>
<path d="M51.2314 10.8631C51.2314 11.5526 50.6724 12.1116 49.9829 12.1116C49.2933 12.1116 48.7344 11.5526 48.7344 10.8631C48.7344 10.1736 49.2933 9.6146 49.9829 9.6146C50.6724 9.6146 51.2314 10.1736 51.2314 10.8631Z"/>
<path d="M42.9912 9.03196C43.6807 9.03196 44.2397 8.47298 44.2397 7.78344C44.2397 7.09391 43.6807 6.53493 42.9912 6.53493C42.3017 6.53493 41.7427 7.09391 41.7427 7.78344C41.7427 8.47298 42.3017 9.03196 42.9912 9.03196Z"/>
</mask>
<path d="M69.2071 56.4103L65.0518 54.2623C58.8413 64.0241 47.9271 70.5005 35.5001 70.5005C16.1702 70.5005 0.500122 54.8305 0.500122 35.5005C0.500122 16.1705 16.1702 0.500488 35.5001 0.500488C54.8301 0.500488 70.5001 16.1705 70.5001 35.5005H68.5025C68.5025 17.2738 53.7268 2.49811 35.5001 2.49811C17.2734 2.49811 2.49774 17.2738 2.49774 35.5005C2.49774 53.7272 17.2734 68.5029 35.5001 68.5029C47.1542 68.5029 57.3975 62.4621 63.2695 53.341L59.3705 51.3255L68.6948 45.3446L69.2071 56.4103Z" fill="#F04931"/>
<path fill-rule="evenodd" clip-rule="evenodd" d="M34.2516 31.0177V14.5254H36.7486V30.9752C38.5486 31.4024 39.9776 32.7973 40.4284 34.5849H51.7308V37.0819H40.4066C39.833 39.1985 37.882 40.7442 35.5833 40.7442C32.8384 40.7442 30.5893 38.54 30.5893 35.7918C30.5893 33.5047 32.1469 31.5944 34.2516 31.0177ZM35.5833 33.3364C34.1911 33.3364 33.0863 34.4488 33.0863 35.7918C33.0863 37.1347 34.1911 38.2472 35.5833 38.2472C36.9756 38.2472 38.0804 37.1347 38.0804 35.7918C38.0804 34.4488 36.9756 33.3364 35.5833 33.3364Z" fill="#F04931"/>
<path d="M37.9971 6.53493C37.9971 7.914 36.8792 9.03196 35.5001 9.03196C34.121 9.03196 33.0031 7.914 33.0031 6.53493C33.0031 5.15586 34.121 4.0379 35.5001 4.0379C36.8792 4.0379 37.9971 5.15586 37.9971 6.53493Z" fill="#F04931"/>
<path d="M8.86515 35.7501C8.86515 37.1292 7.7472 38.2472 6.36813 38.2472C4.98906 38.2472 3.8711 37.1292 3.8711 35.7501C3.8711 34.3711 4.98906 33.2531 6.36813 33.2531C7.7472 33.2531 8.86515 34.3711 8.86515 35.7501Z" fill="#F04931"/>
<path d="M35.5001 67.2959C36.8792 67.2959 37.9971 66.178 37.9971 64.7989C37.9971 63.4198 36.8792 62.3019 35.5001 62.3019C34.121 62.3019 33.0031 63.4198 33.0031 64.7989C33.0031 66.178 34.121 67.2959 35.5001 67.2959Z" fill="#F04931"/>
<path d="M66.9627 35.7501C66.9627 37.1292 65.8447 38.2472 64.4656 38.2472C63.0866 38.2472 61.9686 37.1292 61.9686 35.7501C61.9686 34.3711 63.0866 33.2531 64.4656 33.2531C65.8447 33.2531 66.9627 34.3711 66.9627 35.7501Z" fill="#F04931"/>
<path d="M12.5275 36.8322C13.217 36.8322 13.776 36.2732 13.776 35.5837C13.776 34.8941 13.217 34.3352 12.5275 34.3352C11.8379 34.3352 11.2789 34.8941 11.2789 35.5837C11.2789 36.2732 11.8379 36.8322 12.5275 36.8322Z" fill="#F04931"/>
<path d="M11.8616 50.1497C11.8616 50.8392 11.3026 51.3982 10.6131 51.3982C9.92354 51.3982 9.36456 50.8392 9.36456 50.1497C9.36456 49.4601 9.92354 48.9012 10.6131 48.9012C11.3026 48.9012 11.8616 49.4601 11.8616 50.1497Z" fill="#F04931"/>
<path d="M63.2171 44.9059C63.9067 44.9059 64.4656 44.3469 64.4656 43.6574C64.4656 42.9679 63.9067 42.4089 63.2171 42.4089C62.5276 42.4089 61.9686 42.9679 61.9686 43.6574C61.9686 44.3469 62.5276 44.9059 63.2171 44.9059Z" fill="#F04931"/>
<path d="M16.273 56.1425C16.273 56.8321 15.714 57.3911 15.0245 57.3911C14.335 57.3911 13.776 56.8321 13.776 56.1425C13.776 55.453 14.335 54.894 15.0245 54.894C15.714 54.894 16.273 55.453 16.273 56.1425Z" fill="#F04931"/>
<path d="M21.0174 61.8025C21.7069 61.8025 22.2659 61.2435 22.2659 60.554C22.2659 59.8644 21.7069 59.3054 21.0174 59.3054C20.3278 59.3054 19.7688 59.8644 19.7688 60.554C19.7688 61.2435 20.3278 61.8025 21.0174 61.8025Z" fill="#F04931"/>
<path d="M28.8414 63.5504C28.8414 64.2399 28.2824 64.7989 27.5929 64.7989C26.9033 64.7989 26.3443 64.2399 26.3443 63.5504C26.3443 62.8608 26.9033 62.3019 27.5929 62.3019C28.2824 62.3019 28.8414 62.8608 28.8414 63.5504Z" fill="#F04931"/>
<path d="M35.5001 59.8881C36.1896 59.8881 36.7486 59.3291 36.7486 58.6396C36.7486 57.95 36.1896 57.3911 35.5001 57.3911C34.8106 57.3911 34.2516 57.95 34.2516 58.6396C34.2516 59.3291 34.8106 59.8881 35.5001 59.8881Z" fill="#F04931"/>
<path d="M36.7486 12.1116C36.7486 12.8012 36.1896 13.3601 35.5001 13.3601C34.8106 13.3601 34.2516 12.8012 34.2516 12.1116C34.2516 11.4221 34.8106 10.8631 35.5001 10.8631C36.1896 10.8631 36.7486 11.4221 36.7486 12.1116Z" fill="#F04931"/>
<path d="M43.4074 64.7989C44.0969 64.7989 44.6559 64.2399 44.6559 63.5504C44.6559 62.8608 44.0969 62.3019 43.4074 62.3019C42.7178 62.3019 42.1589 62.8608 42.1589 63.5504C42.1589 64.2399 42.7178 64.7989 43.4074 64.7989Z" fill="#F04931"/>
<path d="M51.2314 60.554C51.2314 61.2435 50.6724 61.8025 49.9829 61.8025C49.2933 61.8025 48.7344 61.2435 48.7344 60.554C48.7344 59.8644 49.2933 59.3054 49.9829 59.3054C50.6724 59.3054 51.2314 59.8644 51.2314 60.554Z" fill="#F04931"/>
<path d="M55.8925 57.3911C56.582 57.3911 57.141 56.8321 57.141 56.1425C57.141 55.453 56.582 54.894 55.8925 54.894C55.203 54.894 54.644 55.453 54.644 56.1425C54.644 56.8321 55.203 57.3911 55.8925 57.3911Z" fill="#F04931"/>
<path d="M8.86515 43.6574C8.86515 44.3469 8.30617 44.9059 7.61664 44.9059C6.9271 44.9059 6.36813 44.3469 6.36813 43.6574C6.36813 42.9679 6.9271 42.4089 7.61664 42.4089C8.30617 42.4089 8.86515 42.9679 8.86515 43.6574Z" fill="#F04931"/>
<path d="M27.5929 9.03196C28.2824 9.03196 28.8414 8.47298 28.8414 7.78344C28.8414 7.09391 28.2824 6.53493 27.5929 6.53493C26.9033 6.53493 26.3443 7.09391 26.3443 7.78344C26.3443 8.47298 26.9033 9.03196 27.5929 9.03196Z" fill="#F04931"/>
<path d="M22.1826 10.8631C22.1826 11.5526 21.6237 12.1116 20.9341 12.1116C20.2446 12.1116 19.6856 11.5526 19.6856 10.8631C19.6856 10.1736 20.2446 9.6146 20.9341 9.6146C21.6237 9.6146 22.1826 10.1736 22.1826 10.8631Z" fill="#F04931"/>
<path d="M15.4407 16.6063C16.1302 16.6063 16.6892 16.0473 16.6892 15.3578C16.6892 14.6682 16.1302 14.1092 15.4407 14.1092C14.7511 14.1092 14.1921 14.6682 14.1921 15.3578C14.1921 16.0473 14.7511 16.6063 15.4407 16.6063Z" fill="#F04931"/>
<path d="M12.5275 21.1009C12.5275 21.7905 11.9685 22.3494 11.2789 22.3494C10.5894 22.3494 10.0304 21.7905 10.0304 21.1009C10.0304 20.4114 10.5894 19.8524 11.2789 19.8524C11.9685 19.8524 12.5275 20.4114 12.5275 21.1009Z" fill="#F04931"/>
<path d="M7.61664 29.0914C8.30617 29.0914 8.86515 28.5324 8.86515 27.8429C8.86515 27.1534 8.30617 26.5944 7.61664 26.5944C6.9271 26.5944 6.36813 27.1534 6.36813 27.8429C6.36813 28.5324 6.9271 29.0914 7.61664 29.0914Z" fill="#F04931"/>
<path d="M60.2207 35.5837C60.2207 36.2732 59.6617 36.8322 58.9722 36.8322C58.2826 36.8322 57.7237 36.2732 57.7237 35.5837C57.7237 34.8941 58.2826 34.3352 58.9722 34.3352C59.6617 34.3352 60.2207 34.8941 60.2207 35.5837Z" fill="#F04931"/>
<path d="M60.2207 22.8488C60.9102 22.8488 61.4692 22.2899 61.4692 21.6003C61.4692 20.9108 60.9102 20.3518 60.2207 20.3518C59.5311 20.3518 58.9722 20.9108 58.9722 21.6003C58.9722 22.2899 59.5311 22.8488 60.2207 22.8488Z" fill="#F04931"/>
<path d="M64.4656 27.8429C64.4656 28.5324 63.9067 29.0914 63.2171 29.0914C62.5276 29.0914 61.9686 28.5324 61.9686 27.8429C61.9686 27.1534 62.5276 26.5944 63.2171 26.5944C63.9067 26.5944 64.4656 27.1534 64.4656 27.8429Z" fill="#F04931"/>
<path d="M55.8925 16.6063C56.582 16.6063 57.141 16.0473 57.141 15.3578C57.141 14.6682 56.582 14.1092 55.8925 14.1092C55.203 14.1092 54.644 14.6682 54.644 15.3578C54.644 16.0473 55.203 16.6063 55.8925 16.6063Z" fill="#F04931"/>
<path d="M51.2314 10.8631C51.2314 11.5526 50.6724 12.1116 49.9829 12.1116C49.2933 12.1116 48.7344 11.5526 48.7344 10.8631C48.7344 10.1736 49.2933 9.6146 49.9829 9.6146C50.6724 9.6146 51.2314 10.1736 51.2314 10.8631Z" fill="#F04931"/>
<path d="M42.9912 9.03196C43.6807 9.03196 44.2397 8.47298 44.2397 7.78344C44.2397 7.09391 43.6807 6.53493 42.9912 6.53493C42.3017 6.53493 41.7427 7.09391 41.7427 7.78344C41.7427 8.47298 42.3017 9.03196 42.9912 9.03196Z" fill="#F04931"/>
<path d="M69.2071 56.4103L65.0518 54.2623C58.8413 64.0241 47.9271 70.5005 35.5001 70.5005C16.1702 70.5005 0.500122 54.8305 0.500122 35.5005C0.500122 16.1705 16.1702 0.500488 35.5001 0.500488C54.8301 0.500488 70.5001 16.1705 70.5001 35.5005H68.5025C68.5025 17.2738 53.7268 2.49811 35.5001 2.49811C17.2734 2.49811 2.49774 17.2738 2.49774 35.5005C2.49774 53.7272 17.2734 68.5029 35.5001 68.5029C47.1542 68.5029 57.3975 62.4621 63.2695 53.341L59.3705 51.3255L68.6948 45.3446L69.2071 56.4103Z" stroke="#F04931" stroke-width="2" mask="url(#path-1-inside-1_301_106)"/>
<path fill-rule="evenodd" clip-rule="evenodd" d="M34.2516 31.0177V14.5254H36.7486V30.9752C38.5486 31.4024 39.9776 32.7973 40.4284 34.5849H51.7308V37.0819H40.4066C39.833 39.1985 37.882 40.7442 35.5833 40.7442C32.8384 40.7442 30.5893 38.54 30.5893 35.7918C30.5893 33.5047 32.1469 31.5944 34.2516 31.0177ZM35.5833 33.3364C34.1911 33.3364 33.0863 34.4488 33.0863 35.7918C33.0863 37.1347 34.1911 38.2472 35.5833 38.2472C36.9756 38.2472 38.0804 37.1347 38.0804 35.7918C38.0804 34.4488 36.9756 33.3364 35.5833 33.3364Z" stroke="#F04931" stroke-width="2" mask="url(#path-1-inside-1_301_106)"/>
<path d="M37.9971 6.53493C37.9971 7.914 36.8792 9.03196 35.5001 9.03196C34.121 9.03196 33.0031 7.914 33.0031 6.53493C33.0031 5.15586 34.121 4.0379 35.5001 4.0379C36.8792 4.0379 37.9971 5.15586 37.9971 6.53493Z" stroke="#F04931" stroke-width="2" mask="url(#path-1-inside-1_301_106)"/>
<path d="M8.86515 35.7501C8.86515 37.1292 7.7472 38.2472 6.36813 38.2472C4.98906 38.2472 3.8711 37.1292 3.8711 35.7501C3.8711 34.3711 4.98906 33.2531 6.36813 33.2531C7.7472 33.2531 8.86515 34.3711 8.86515 35.7501Z" stroke="#F04931" stroke-width="2" mask="url(#path-1-inside-1_301_106)"/>
<path d="M35.5001 67.2959C36.8792 67.2959 37.9971 66.178 37.9971 64.7989C37.9971 63.4198 36.8792 62.3019 35.5001 62.3019C34.121 62.3019 33.0031 63.4198 33.0031 64.7989C33.0031 66.178 34.121 67.2959 35.5001 67.2959Z" stroke="#F04931" stroke-width="2" mask="url(#path-1-inside-1_301_106)"/>
<path d="M66.9627 35.7501C66.9627 37.1292 65.8447 38.2472 64.4656 38.2472C63.0866 38.2472 61.9686 37.1292 61.9686 35.7501C61.9686 34.3711 63.0866 33.2531 64.4656 33.2531C65.8447 33.2531 66.9627 34.3711 66.9627 35.7501Z" stroke="#F04931" stroke-width="2" mask="url(#path-1-inside-1_301_106)"/>
<path d="M12.5275 36.8322C13.217 36.8322 13.776 36.2732 13.776 35.5837C13.776 34.8941 13.217 34.3352 12.5275 34.3352C11.8379 34.3352 11.2789 34.8941 11.2789 35.5837C11.2789 36.2732 11.8379 36.8322 12.5275 36.8322Z" stroke="#F04931" stroke-width="2" mask="url(#path-1-inside-1_301_106)"/>
<path d="M11.8616 50.1497C11.8616 50.8392 11.3026 51.3982 10.6131 51.3982C9.92354 51.3982 9.36456 50.8392 9.36456 50.1497C9.36456 49.4601 9.92354 48.9012 10.6131 48.9012C11.3026 48.9012 11.8616 49.4601 11.8616 50.1497Z" stroke="#F04931" stroke-width="2" mask="url(#path-1-inside-1_301_106)"/>
<path d="M63.2171 44.9059C63.9067 44.9059 64.4656 44.3469 64.4656 43.6574C64.4656 42.9679 63.9067 42.4089 63.2171 42.4089C62.5276 42.4089 61.9686 42.9679 61.9686 43.6574C61.9686 44.3469 62.5276 44.9059 63.2171 44.9059Z" stroke="#F04931" stroke-width="2" mask="url(#path-1-inside-1_301_106)"/>
<path d="M16.273 56.1425C16.273 56.8321 15.714 57.3911 15.0245 57.3911C14.335 57.3911 13.776 56.8321 13.776 56.1425C13.776 55.453 14.335 54.894 15.0245 54.894C15.714 54.894 16.273 55.453 16.273 56.1425Z" stroke="#F04931" stroke-width="2" mask="url(#path-1-inside-1_301_106)"/>
<path d="M21.0174 61.8025C21.7069 61.8025 22.2659 61.2435 22.2659 60.554C22.2659 59.8644 21.7069 59.3054 21.0174 59.3054C20.3278 59.3054 19.7688 59.8644 19.7688 60.554C19.7688 61.2435 20.3278 61.8025 21.0174 61.8025Z" stroke="#F04931" stroke-width="2" mask="url(#path-1-inside-1_301_106)"/>
<path d="M28.8414 63.5504C28.8414 64.2399 28.2824 64.7989 27.5929 64.7989C26.9033 64.7989 26.3443 64.2399 26.3443 63.5504C26.3443 62.8608 26.9033 62.3019 27.5929 62.3019C28.2824 62.3019 28.8414 62.8608 28.8414 63.5504Z" stroke="#F04931" stroke-width="2" mask="url(#path-1-inside-1_301_106)"/>
<path d="M35.5001 59.8881C36.1896 59.8881 36.7486 59.3291 36.7486 58.6396C36.7486 57.95 36.1896 57.3911 35.5001 57.3911C34.8106 57.3911 34.2516 57.95 34.2516 58.6396C34.2516 59.3291 34.8106 59.8881 35.5001 59.8881Z" stroke="#F04931" stroke-width="2" mask="url(#path-1-inside-1_301_106)"/>
<path d="M36.7486 12.1116C36.7486 12.8012 36.1896 13.3601 35.5001 13.3601C34.8106 13.3601 34.2516 12.8012 34.2516 12.1116C34.2516 11.4221 34.8106 10.8631 35.5001 10.8631C36.1896 10.8631 36.7486 11.4221 36.7486 12.1116Z" stroke="#F04931" stroke-width="2" mask="url(#path-1-inside-1_301_106)"/>
<path d="M43.4074 64.7989C44.0969 64.7989 44.6559 64.2399 44.6559 63.5504C44.6559 62.8608 44.0969 62.3019 43.4074 62.3019C42.7178 62.3019 42.1589 62.8608 42.1589 63.5504C42.1589 64.2399 42.7178 64.7989 43.4074 64.7989Z" stroke="#F04931" stroke-width="2" mask="url(#path-1-inside-1_301_106)"/>
<path d="M51.2314 60.554C51.2314 61.2435 50.6724 61.8025 49.9829 61.8025C49.2933 61.8025 48.7344 61.2435 48.7344 60.554C48.7344 59.8644 49.2933 59.3054 49.9829 59.3054C50.6724 59.3054 51.2314 59.8644 51.2314 60.554Z" stroke="#F04931" stroke-width="2" mask="url(#path-1-inside-1_301_106)"/>
<path d="M55.8925 57.3911C56.582 57.3911 57.141 56.8321 57.141 56.1425C57.141 55.453 56.582 54.894 55.8925 54.894C55.203 54.894 54.644 55.453 54.644 56.1425C54.644 56.8321 55.203 57.3911 55.8925 57.3911Z" stroke="#F04931" stroke-width="2" mask="url(#path-1-inside-1_301_106)"/>
<path d="M8.86515 43.6574C8.86515 44.3469 8.30617 44.9059 7.61664 44.9059C6.9271 44.9059 6.36813 44.3469 6.36813 43.6574C6.36813 42.9679 6.9271 42.4089 7.61664 42.4089C8.30617 42.4089 8.86515 42.9679 8.86515 43.6574Z" stroke="#F04931" stroke-width="2" mask="url(#path-1-inside-1_301_106)"/>
<path d="M27.5929 9.03196C28.2824 9.03196 28.8414 8.47298 28.8414 7.78344C28.8414 7.09391 28.2824 6.53493 27.5929 6.53493C26.9033 6.53493 26.3443 7.09391 26.3443 7.78344C26.3443 8.47298 26.9033 9.03196 27.5929 9.03196Z" stroke="#F04931" stroke-width="2" mask="url(#path-1-inside-1_301_106)"/>
<path d="M22.1826 10.8631C22.1826 11.5526 21.6237 12.1116 20.9341 12.1116C20.2446 12.1116 19.6856 11.5526 19.6856 10.8631C19.6856 10.1736 20.2446 9.6146 20.9341 9.6146C21.6237 9.6146 22.1826 10.1736 22.1826 10.8631Z" stroke="#F04931" stroke-width="2" mask="url(#path-1-inside-1_301_106)"/>
<path d="M15.4407 16.6063C16.1302 16.6063 16.6892 16.0473 16.6892 15.3578C16.6892 14.6682 16.1302 14.1092 15.4407 14.1092C14.7511 14.1092 14.1921 14.6682 14.1921 15.3578C14.1921 16.0473 14.7511 16.6063 15.4407 16.6063Z" stroke="#F04931" stroke-width="2" mask="url(#path-1-inside-1_301_106)"/>
<path d="M12.5275 21.1009C12.5275 21.7905 11.9685 22.3494 11.2789 22.3494C10.5894 22.3494 10.0304 21.7905 10.0304 21.1009C10.0304 20.4114 10.5894 19.8524 11.2789 19.8524C11.9685 19.8524 12.5275 20.4114 12.5275 21.1009Z" stroke="#F04931" stroke-width="2" mask="url(#path-1-inside-1_301_106)"/>
<path d="M7.61664 29.0914C8.30617 29.0914 8.86515 28.5324 8.86515 27.8429C8.86515 27.1534 8.30617 26.5944 7.61664 26.5944C6.9271 26.5944 6.36813 27.1534 6.36813 27.8429C6.36813 28.5324 6.9271 29.0914 7.61664 29.0914Z" stroke="#F04931" stroke-width="2" mask="url(#path-1-inside-1_301_106)"/>
<path d="M60.2207 35.5837C60.2207 36.2732 59.6617 36.8322 58.9722 36.8322C58.2826 36.8322 57.7237 36.2732 57.7237 35.5837C57.7237 34.8941 58.2826 34.3352 58.9722 34.3352C59.6617 34.3352 60.2207 34.8941 60.2207 35.5837Z" stroke="#F04931" stroke-width="2" mask="url(#path-1-inside-1_301_106)"/>
<path d="M60.2207 22.8488C60.9102 22.8488 61.4692 22.2899 61.4692 21.6003C61.4692 20.9108 60.9102 20.3518 60.2207 20.3518C59.5311 20.3518 58.9722 20.9108 58.9722 21.6003C58.9722 22.2899 59.5311 22.8488 60.2207 22.8488Z" stroke="#F04931" stroke-width="2" mask="url(#path-1-inside-1_301_106)"/>
<path d="M64.4656 27.8429C64.4656 28.5324 63.9067 29.0914 63.2171 29.0914C62.5276 29.0914 61.9686 28.5324 61.9686 27.8429C61.9686 27.1534 62.5276 26.5944 63.2171 26.5944C63.9067 26.5944 64.4656 27.1534 64.4656 27.8429Z" stroke="#F04931" stroke-width="2" mask="url(#path-1-inside-1_301_106)"/>
<path d="M55.8925 16.6063C56.582 16.6063 57.141 16.0473 57.141 15.3578C57.141 14.6682 56.582 14.1092 55.8925 14.1092C55.203 14.1092 54.644 14.6682 54.644 15.3578C54.644 16.0473 55.203 16.6063 55.8925 16.6063Z" stroke="#F04931" stroke-width="2" mask="url(#path-1-inside-1_301_106)"/>
<path d="M51.2314 10.8631C51.2314 11.5526 50.6724 12.1116 49.9829 12.1116C49.2933 12.1116 48.7344 11.5526 48.7344 10.8631C48.7344 10.1736 49.2933 9.6146 49.9829 9.6146C50.6724 9.6146 51.2314 10.1736 51.2314 10.8631Z" stroke="#F04931" stroke-width="2" mask="url(#path-1-inside-1_301_106)"/>
<path d="M42.9912 9.03196C43.6807 9.03196 44.2397 8.47298 44.2397 7.78344C44.2397 7.09391 43.6807 6.53493 42.9912 6.53493C42.3017 6.53493 41.7427 7.09391 41.7427 7.78344C41.7427 8.47298 42.3017 9.03196 42.9912 9.03196Z" stroke="#F04931" stroke-width="2" mask="url(#path-1-inside-1_301_106)"/>
</svg>
